<svg xmlns="http://www.w3.org/2000/svg" version="1.1" xmlnsXlink="http://www.w3.org/1999/xlink" xmlnsSvgjs="http://svgjs.dev/svgjs" width="150" height="50" viewBox="0 0 1500 193"><g transform="matrix(1,0,0,1,-0.9090909090909918,-0.14313872391339544)"><svg viewBox="0 0 396 51" data-background-color="#EBEBEB" preserveAspectRatio="xMidYMid meet" height="193" width="1500" xmlns="http://www.w3.org/2000/svg" xmlns:xlink="http://www.w3.org/1999/xlink"><g id="tight-bounds" transform="matrix(1,0,0,1,0.2400000000000091,0.0378242223812606)"><svg viewBox="0 0 395.52 50.92435155523749" height="50.92435155523749" width="395.52"><g><svg viewBox="0 0 490.93397392564043 63.20917849564905" height="50.92435155523749" width="395.52"><g><rect width="5.67190940160183" height="63.20917849564905" x="74.89413415335319" y="0" fill="#004E98" opacity="1" stroke-width="0" stroke="transparent" fill-opacity="1" class="rect-qz-0" data-fill-palette-color="primary" rx="1%" id="qz-0" data-palette-color="#004E98"></rect></g><g transform="matrix(1,0,0,1,95.41397392564045,0.15723676242698303)"><svg viewBox="0 0 395.52 62.89470497079508" height="62.89470497079508" width="395.52"><g id="textblocktransform"><svg viewBox="0 0 395.52 62.89470497079508" height="62.89470497079508" width="395.52" id="textblock"><g><svg viewBox="0 0 395.52 62.89470497079508" height="62.89470497079508" width="395.52"><g transform="matrix(1,0,0,1,0,0)"><svg width="395.52" viewBox="1.95 -32.03 204.8 32.57" height="62.89470497079508" data-palette-color="#004E98"><path d="M25.56-28.98Q26.39-28.98 26.75-28.6 27.1-28.22 27.1-27.32L27.1-27.32 27.1-20.87Q27.1-20.02 26.68-19.65 26.27-19.29 25.27-19.29L25.27-19.29Q24.27-19.29 23.85-19.65 23.44-20.02 23.44-20.87L23.44-20.87 23.44-25.66 10.38-25.66 10.38-16.11 16.58-16.11 16.58-18.33Q16.58-19.19 16.96-19.56 17.33-19.92 18.31-19.92L18.31-19.92Q19.29-19.92 19.67-19.56 20.04-19.19 20.04-18.33L20.04-18.33 20.04-10.57Q20.04-9.72 19.67-9.35 19.29-8.98 18.31-8.98L18.31-8.98Q17.33-8.98 16.96-9.35 16.58-9.72 16.58-10.57L16.58-10.57 16.58-12.79 10.38-12.79 10.38-3.32 16.04-3.32Q16.87-3.32 17.22-2.94 17.58-2.56 17.58-1.66L17.58-1.66Q17.58-0.76 17.22-0.38 16.87 0 16.04 0L16.04 0 3.49 0Q2.66 0 2.31-0.38 1.95-0.76 1.95-1.66L1.95-1.66Q1.95-2.56 2.31-2.94 2.66-3.32 3.49-3.32L3.49-3.32 6.71-3.32 6.71-25.66 3.49-25.66Q2.66-25.66 2.31-26.04 1.95-26.42 1.95-27.32L1.95-27.32Q1.95-28.22 2.31-28.6 2.66-28.98 3.49-28.98L3.49-28.98 25.56-28.98ZM45.07-23.1Q49.66-23.1 51.95-21.04 54.25-18.99 54.25-14.97L54.25-14.97 54.25-5.25Q54.25-3.32 55.86-3.32L55.86-3.32 56.71-3.32Q57.54-3.32 57.9-2.94 58.25-2.56 58.25-1.66L58.25-1.66Q58.25-0.76 57.9-0.38 57.54 0 56.71 0L56.71 0 55.15 0Q53.56 0 52.43-0.79 51.29-1.59 50.95-3.13L50.95-3.13Q48.95-1.37 46.62-0.42 44.28 0.54 41.67 0.54L41.67 0.54Q39.21 0.54 37.31-0.31 35.42-1.15 34.35-2.76 33.27-4.37 33.27-6.59L33.27-6.59Q33.27-10.45 36.03-12.29 38.79-14.14 43.16-14.14L43.16-14.14Q47.04-14.14 50.58-12.89L50.58-12.89 50.58-14.97Q50.58-17.33 49.25-18.44 47.92-19.56 44.97-19.56L44.97-19.56Q43.14-19.56 41.16-19.04 39.18-18.53 37.4-17.63L37.4-17.63Q36.98-17.41 36.64-17.41L36.64-17.41Q35.84-17.41 35.3-18.58L35.3-18.58Q35.03-19.17 35.03-19.56L35.03-19.56Q35.03-20.41 35.94-20.87L35.94-20.87Q37.99-21.95 40.34-22.52 42.7-23.1 45.07-23.1L45.07-23.1ZM43.19-10.69Q40.38-10.69 38.75-9.73 37.13-8.76 37.13-6.67L37.13-6.67Q37.13-4.88 38.36-3.89 39.6-2.91 41.82-2.91L41.82-2.91Q46.68-2.91 50.58-6.93L50.58-6.93 50.58-9.59Q48.92-10.13 47.02-10.41 45.11-10.69 43.19-10.69L43.19-10.69ZM75.04-23.1Q79.63-23.1 81.93-21.04 84.22-18.99 84.22-14.97L84.22-14.97 84.22-5.25Q84.22-3.32 85.83-3.32L85.83-3.32 86.69-3.32Q87.52-3.32 87.87-2.94 88.23-2.56 88.23-1.66L88.23-1.66Q88.23-0.76 87.87-0.38 87.52 0 86.69 0L86.69 0 85.13 0Q83.54 0 82.4-0.79 81.27-1.59 80.93-3.13L80.93-3.13Q78.93-1.37 76.59-0.42 74.26 0.54 71.65 0.54L71.65 0.54Q69.18 0.54 67.29-0.31 65.4-1.15 64.33-2.76 63.25-4.37 63.25-6.59L63.25-6.59Q63.25-10.45 66.01-12.29 68.77-14.14 73.14-14.14L73.14-14.14Q77.02-14.14 80.56-12.89L80.56-12.89 80.56-14.97Q80.56-17.33 79.23-18.44 77.9-19.56 74.95-19.56L74.95-19.56Q73.12-19.56 71.14-19.04 69.16-18.53 67.38-17.63L67.38-17.63Q66.96-17.41 66.62-17.41L66.62-17.41Q65.82-17.41 65.28-18.58L65.28-18.58Q65.01-19.17 65.01-19.56L65.01-19.56Q65.01-20.41 65.91-20.87L65.91-20.87Q67.96-21.95 70.32-22.52 72.68-23.1 75.04-23.1L75.04-23.1ZM73.16-10.69Q70.36-10.69 68.73-9.73 67.11-8.76 67.11-6.67L67.11-6.67Q67.11-4.88 68.34-3.89 69.58-2.91 71.8-2.91L71.8-2.91Q76.66-2.91 80.56-6.93L80.56-6.93 80.56-9.59Q78.9-10.13 77-10.41 75.09-10.69 73.16-10.69L73.16-10.69ZM96.99-32.03Q97.82-32.03 98.17-31.65 98.53-31.27 98.53-30.37L98.53-30.37 98.53-19.07Q101.68-23.1 106.27-23.1L106.27-23.1Q109.29-23.1 111.69-21.67 114.08-20.24 115.45-17.57 116.81-14.89 116.81-11.28L116.81-11.28Q116.81-7.67 115.45-4.99 114.08-2.32 111.69-0.89 109.29 0.54 106.27 0.54L106.27 0.54Q103.87 0.54 101.85-0.54 99.82-1.61 98.28-3.61L98.28-3.61 98.28-1.66Q98.28-0.76 97.93-0.38 97.58 0 96.75 0L96.75 0 92.86 0Q92.03 0 91.68-0.38 91.33-0.76 91.33-1.66L91.33-1.66Q91.33-2.56 91.68-2.94 92.03-3.32 92.86-3.32L92.86-3.32 94.87-3.32 94.87-28.71 92.38-28.71Q91.55-28.71 91.19-29.09 90.84-29.47 90.84-30.37L90.84-30.37Q90.84-31.27 91.19-31.65 91.55-32.03 92.38-32.03L92.38-32.03 96.99-32.03ZM106.02-19.48Q103.85-19.48 102.15-18.51 100.46-17.53 99.49-15.67 98.53-13.82 98.53-11.28L98.53-11.28Q98.53-8.74 99.49-6.88 100.46-5.03 102.15-4.05 103.85-3.08 106.02-3.08L106.02-3.08Q108.2-3.08 109.76-4.11 111.32-5.15 112.14-7.01 112.96-8.86 112.96-11.28L112.96-11.28Q112.96-13.7 112.14-15.55 111.32-17.41 109.76-18.44 108.2-19.48 106.02-19.48L106.02-19.48ZM135.54-32.03Q136.37-32.03 136.72-31.65 137.07-31.27 137.07-30.37L137.07-30.37 137.07-3.32 144.91-3.32Q145.74-3.32 146.1-2.94 146.45-2.56 146.45-1.66L146.45-1.66Q146.45-0.76 146.1-0.38 145.74 0 144.91 0L144.91 0 125.77 0Q124.94 0 124.59-0.38 124.23-0.76 124.23-1.66L124.23-1.66Q124.23-2.56 124.59-2.94 124.94-3.32 125.77-3.32L125.77-3.32 133.41-3.32 133.41-28.71 126.75-28.71Q125.92-28.71 125.56-29.09 125.21-29.47 125.21-30.37L125.21-30.37Q125.21-31.27 125.56-31.65 125.92-32.03 126.75-32.03L126.75-32.03 135.54-32.03ZM164.98-23.1Q169.57-23.1 171.86-21.04 174.16-18.99 174.16-14.97L174.16-14.97 174.16-5.25Q174.16-3.32 175.77-3.32L175.77-3.32 176.62-3.32Q177.45-3.32 177.81-2.94 178.16-2.56 178.16-1.66L178.16-1.66Q178.16-0.76 177.81-0.38 177.45 0 176.62 0L176.62 0 175.06 0Q173.47 0 172.34-0.79 171.2-1.59 170.86-3.13L170.86-3.13Q168.86-1.37 166.53-0.42 164.2 0.54 161.58 0.54L161.58 0.54Q159.12 0.54 157.23-0.31 155.33-1.15 154.26-2.76 153.19-4.37 153.19-6.59L153.19-6.59Q153.19-10.45 155.94-12.29 158.7-14.14 163.07-14.14L163.07-14.14Q166.96-14.14 170.5-12.89L170.5-12.89 170.5-14.97Q170.5-17.33 169.16-18.44 167.83-19.56 164.88-19.56L164.88-19.56Q163.05-19.56 161.07-19.04 159.09-18.53 157.31-17.63L157.31-17.63Q156.9-17.41 156.55-17.41L156.55-17.41Q155.75-17.41 155.21-18.58L155.21-18.58Q154.94-19.17 154.94-19.56L154.94-19.56Q154.94-20.41 155.85-20.87L155.85-20.87Q157.9-21.95 160.25-22.52 162.61-23.1 164.98-23.1L164.98-23.1ZM163.1-10.69Q160.29-10.69 158.67-9.73 157.04-8.76 157.04-6.67L157.04-6.67Q157.04-4.88 158.28-3.89 159.51-2.91 161.73-2.91L161.73-2.91Q166.59-2.91 170.5-6.93L170.5-6.93 170.5-9.59Q168.84-10.13 166.93-10.41 165.03-10.69 163.1-10.69L163.1-10.69ZM186.92-32.03Q187.75-32.03 188.11-31.65 188.46-31.27 188.46-30.37L188.46-30.37 188.46-19.07Q191.61-23.1 196.2-23.1L196.2-23.1Q199.23-23.1 201.62-21.67 204.01-20.24 205.38-17.57 206.75-14.89 206.75-11.28L206.75-11.28Q206.75-7.67 205.38-4.99 204.01-2.32 201.62-0.89 199.23 0.54 196.2 0.54L196.2 0.54Q193.81 0.54 191.78-0.54 189.76-1.61 188.22-3.61L188.22-3.61 188.22-1.66Q188.22-0.76 187.86-0.38 187.51 0 186.68 0L186.68 0 182.8 0Q181.97 0 181.61-0.38 181.26-0.76 181.26-1.66L181.26-1.66Q181.26-2.56 181.61-2.94 181.97-3.32 182.8-3.32L182.8-3.32 184.8-3.32 184.8-28.71 182.31-28.71Q181.48-28.71 181.13-29.09 180.77-29.47 180.77-30.37L180.77-30.37Q180.77-31.27 181.13-31.65 181.48-32.03 182.31-32.03L182.31-32.03 186.92-32.03ZM195.96-19.48Q193.78-19.48 192.09-18.51 190.39-17.53 189.43-15.67 188.46-13.82 188.46-11.28L188.46-11.28Q188.46-8.74 189.43-6.88 190.39-5.03 192.09-4.05 193.78-3.08 195.96-3.08L195.96-3.08Q198.13-3.08 199.69-4.11 201.25-5.15 202.07-7.01 202.89-8.86 202.89-11.28L202.89-11.28Q202.89-13.7 202.07-15.55 201.25-17.41 199.69-18.44 198.13-19.48 195.96-19.48L195.96-19.48Z" opacity="1" transform="matrix(1,0,0,1,0,0)" fill="#004E98" class="wordmark-text-0" data-fill-palette-color="primary" id="text-0"></path></svg></g></svg></g></svg></g></svg></g><g transform="matrix(1,0,0,1,0,0.1572367624269866)"><svg viewBox="0 0 60.046203782667774 62.894704970795075" height="62.894704970795075" width="60.046203782667774"><g><svg version="1.0" xmlns="http://www.w3.org/2000/svg" xmlns:xlink="http://www.w3.org/1999/xlink" x="0" y="0" viewBox="0 0 95.471 100" enable-background="new 0 0 95.471 100" xml:space="preserve" width="60.046203782667774" height="62.894704970795075" class="icon-icon-0" data-fill-palette-color="accent" id="icon-0"><path d="M47.735 0c-0.083 2.825-1.738 13.412-19.799 30.934C10.554 47.797 2.439 49.824 0 50c2.439 0.178 10.554 2.204 27.936 19.066C45.997 86.589 47.652 97.177 47.735 100c0.083-2.823 1.739-13.411 19.798-30.934C84.917 52.204 93.031 50.178 95.471 50c-2.439-0.176-10.554-2.203-27.938-19.066C49.475 13.412 47.819 2.825 47.735 0z" fill="#004E98" data-fill-palette-color="accent"></path></svg></g></svg></g></svg></g><defs></defs></svg><rect width="395.52" height="50.92435155523749" fill="none" stroke="none" visibility="hidden"></rect></g></svg></g></svg>