<?xml version="1.0" encoding="UTF-8"?>
<svg id="Layer_1" data-name="Layer 1" xmlns="http://www.w3.org/2000/svg" viewBox="0 0 792.38 673.38">
  <defs>
    <style>
      .cls-1, .cls-2, .cls-3, .cls-4, .cls-5, .cls-6, .cls-7, .cls-8, .cls-9, .cls-10, .cls-11, .cls-12, .cls-13, .cls-14, .cls-15, .cls-16, .cls-17, .cls-18, .cls-19 {
        stroke-width: 0px;
      }

      .cls-2 {
        fill: #43874a;
      }

      .cls-3 {
        fill: #e38442;
      }

      .cls-4 {
        fill: #c5c1c2;
      }

      .cls-5 {
        fill: #e28e4f;
      }

      .cls-6 {
        fill: #e0894f;
      }

      .cls-7 {
        fill: #e18547;
      }

      .cls-8 {
        fill: #b1acad;
      }

      .cls-9 {
        fill: #8ecaca;
      }

      .cls-10 {
        fill: #905b30;
      }

      .cls-11 {
        fill: #915936;
      }

      .cls-12 {
        fill: #b47040;
      }

      .cls-13 {
        fill: #a06639;
      }

      .cls-14 {
        fill: #9f6133;
      }

      .cls-15 {
        fill: #fdfdfd;
      }

      .cls-16 {
        fill: #92552d;
      }

      .cls-17 {
        fill: #fbfdfc;
      }

      .cls-18 {
        fill: #fcfcfa;
      }

      .cls-19 {
        fill: #fcfcfc;
      }
    </style>
  </defs>
  <path class="cls-1" d="m773.63,316.99c-.42-.48-.83-.95-1.25-1.4,4.17-10.22,7.41-23.94,7.41-41.91,0-.33,0-.65-.02-.98-.56-13.72-3.85-26-9.78-36.49-5.04-8.92-11.87-16.38-20.3-22.17-13.61-9.35-26.89-11.17-29.42-11.44-.85-.09-1.7-.14-2.56-.14-.53,0-1.06.02-1.59.05l-54.86,3.62c-11.62.77-22.3,5.97-30.06,14.64-5.81,6.5-9.51,14.4-10.78,22.84-5.99-3.12-12.1-4.69-17.65-5.38l57.46-94.06c3.9.61,7.58.93,11.01.93h0c19.74,0,29.16-9.96,33.02-15.9,3.5-5.39,8.48-16.86,2.5-33.12-2.67-7.27-7.38-15.03-14-23.08-11.59-14.1-28.96-28.99-48.9-41.92-30-19.47-60.35-31.09-81.2-31.09-19.75,0-29.17,9.96-33.02,15.9-3.5,5.39-8.48,16.86-2.5,33.12.88,2.4,1.99,4.86,3.32,7.36l-39.84,66.76c-1.72-1.09-3.6-1.98-5.61-2.62-8.33-2.64-25.58-7.62-47.52-11.28-1.32-.22-8.82-1.37-10.62-1.61-13.64-1.86-27.19-2.89-40.27-3.08-.11,0-.23,0-.34,0-1.53,0-7.43.02-8.94.02-.14,0-.29,0-.43,0-23.35.42-45.52,3.62-65.9,9.51-26.04,7.53-51.91,21.04-76.89,40.17-1.37,1.05-6.63,5.21-7.96,6.3-10.13,8.3-20.09,17.53-29.62,27.45-1.31,1.36-6.28,6.7-7.54,8.1-6.74,7.45-13.07,15.05-18.81,22.58-4.05,5.31-5.67,12-4.62,18.47l-61.83,14.5c-.19.04-.37.09-.56.14l-37.66,9.78c-18.56,4.82-34.06,15.29-44.81,30.26-11.28,15.7-16.58,35.58-15.33,57.5l4.04,89.49c-5.36,6.9-9.38,16.09-9.38,27.15s4.27,20.99,12.1,28.56l6.35,130.91c1.3,26.89,23.4,47.96,50.31,47.96.94,0,1.9-.03,2.85-.08l1.83-.1c12.3-.69,23.57-6.15,31.73-15.37,8.16-9.22,12.21-21.07,11.39-33.36-1.98-29.88-5.4-81.51-6.05-91.59-.46-7.17-1.39-22.43-2.21-35.93,5.12-.63,9.94-1.64,14.45-2.99.66,12.99,1.49,22.57,1.63,24.17.59,8.13.7,43.57.63,65.08-.25,2.43-.54,6.69-.27,11.62.65,12.03,4.2,21.85,10.55,29.18,6.91,7.97,16.73,12.36,27.64,12.36.18,0,.36,0,.54,0,21.44-.28,31.81-12.14,36.08-19.19,1.1-1.81,1.99-3.6,2.71-5.33,6.04,3.6,13.25,5.54,21.47,5.76.39.01.79.02,1.18.02h0c10.16,0,19.38-3.55,26.41-10.09,3.94,1.39,8.19,2.11,12.61,2.11.18,0,.36,0,.54,0,21.44-.28,31.81-12.14,36.08-19.19,1.1-1.81,1.98-3.6,2.71-5.33,6.04,3.6,13.25,5.54,21.47,5.76.39.01.79.02,1.18.02h0c11.81,0,22.34-4.8,29.66-13.5.61-.73,1.2-1.48,1.76-2.26,1.09.1,2.19.16,3.31.16,2.55,0,5.1-.28,7.59-.83,15.88-3.5,29.38-8.13,40.12-13.76,8.49-4.45,15.84-11.54,22.03-20.1,5.85,3.82,12.76,5.94,19.79,5.94,3.23,0,6.45-.43,9.58-1.29l61.75-16.91c3.67-.55,9.85-1.9,16.3-5.13,3.62-1.82,6.87-4,9.72-6.49,4.33,1.73,9.06,2.64,14.01,2.64.18,0,.36,0,.54,0,21.44-.28,31.81-12.14,36.08-19.19,1.1-1.81,1.98-3.6,2.71-5.33,6.04,3.6,13.25,5.54,21.47,5.76.39.01.79.02,1.18.02h0c11.81,0,22.34-4.8,29.66-13.5.59-.7,1.16-1.43,1.7-2.18,2.71.69,5.56,1.06,8.48,1.06,1.67,0,3.35-.12,5.01-.37,21.93-3.24,51.93-9.07,70.25-18.52,11.16-5.75,23.95-13.06,34.33-27.01,10.91-14.66,17.16-34.18,19.1-59.69,2.45-32.06-8.66-52.17-18.4-63.4Z"/>
  <path class="cls-10" d="m210.89,232.66c-.52.41-1.03.82-1.55,1.23-2.11,1.68-4.16,3.34-6.15,4.99-5.09-3-10.21-4.68-13.88-5.6,4.16-5.46,10.07-12.79,17.52-21.03,1.16,6.1,2.52,13.01,4.06,20.42Z"/>
  <path class="cls-17" d="m218.25,226.94c-1.7-8.33-3.17-15.91-4.36-22.27,7.89-8.21,17.12-16.99,27.51-25.51,1.42,7.23,3.32,16.68,5.59,27.43-9.63,6.3-19.24,13.1-28.74,20.35Z"/>
  <path class="cls-5" d="m221.84,280.02c-.67,5.04-2.03,12.31-4.78,19.41l10.08-.21c-1.84-6.24-3.61-12.68-5.3-19.19Z"/>
  <path class="cls-11" d="m212,309.35c-.87,1.31-1.81,2.56-2.84,3.73,6.29,1.51,14.5,3.31,24.05,5.02-.56-1.59-1.11-3.21-1.66-4.86l-19.55-3.89Z"/>
  <path class="cls-12" d="m227.15,299.21l-10.08.21c-1.33,3.45-3,6.84-5.07,9.93l19.55,3.89c-1.5-4.5-2.97-9.2-4.39-14.03Z"/>
  <path class="cls-19" d="m256.06,247.03c-2.62-10.98-5.05-21.75-7.2-31.7-9.24,6.12-18.84,12.98-28.73,20.65,4.39,20.71,10.01,44.58,16.32,65.29l34.91,2.57c-4.9-15.7-10-34.65-15.28-56.8Z"/>
  <path class="cls-4" d="m271.35,303.83l-34.91-2.57c1.53,5.04,3.11,9.88,4.71,14.45l34.71,1.86c-1.49-4.26-2.99-8.84-4.52-13.74Z"/>
  <path class="cls-8" d="m241.16,315.71c.47,1.34.95,2.66,1.42,3.95,10.8,1.67,22.83,3.1,35.41,3.81-.7-1.89-1.41-3.86-2.12-5.9l-34.71-1.86Z"/>
  <path class="cls-6" d="m385.56,150.91c-4.65.87-9.39,1.83-14.19,2.89-.03-.41-.1-.82-.22-1.22l-1.35-4.98c-.84-3.1-3.65-5.21-6.81-5.21-.2,0-.41,0-.61.02l-4.78.41c-.39-.48-.79-.95-1.22-1.42-1.35-1.45-3.23-2.26-5.17-2.26-.46,0-.92.05-1.38.14l-5.69,1.13c-2.36.47-4.32,2.11-5.2,4.36-.37.96-.53,1.97-.47,2.97l-3.44.78c-1.34.3-2.5.97-3.42,1.88-.17-.01-.34-.02-.51-.02-.6,0-1.2.07-1.81.24l-5.27,1.39c-.45-.63-.94-1.24-1.48-1.81-1.36-1.47-3.24-2.26-5.17-2.26-.77,0-1.55.13-2.31.39l-6.29,2.18c-2.11.73-3.75,2.43-4.42,4.56-.35,1.13-.42,2.3-.2,3.43-1.63.63-3.09,1.27-4.03,1.82-1.29.77-2.16,1.72-2.72,2.82-.27-.03-.55-.05-.83-.05-.83,0-1.67.15-2.5.46l-4.91,1.86c-.71-1.23-1.78-2.23-3.09-2.85-.96-.45-1.99-.68-3.02-.68s-2.06.22-3.01.67l-6.96,3.28c-2.82,1.33-4.43,4.35-3.97,7.43l.15,1c-2.31,1.11-4.61,2.32-5.85,3.25-3.99,2.99-2.91,7.65-2.13,11.05.44,1.91.94,3.73.96,3.8.37,1.34,1.11,2.52,2.13,3.42-3.3,1.94-6.6,3.95-9.9,6.02-2.44-11.63-4.4-21.53-5.74-28.45,19.62-15.02,42.9-28.63,68.94-36.16,20.08-5.8,40.41-8.22,59.65-8.56,2.42,6.05,5.27,13.56,8.24,22.27Z"/>
  <path class="cls-7" d="m410.19,283.82c-14.55,10.8-31.92,21.18-52.65,30.66-21.8,7.89-46.81,10.04-70.54,9.38-.66-1.71-1.32-3.49-1.99-5.35-6.49-17.98-13.52-42.65-20.85-73.37-2.89-12.08-5.53-23.9-7.84-34.65,6.6-4.19,12.99-8,19.16-11.47,2.42,7.23,5.24,11.02,9.17,12.46.78.29,1.61.43,2.42.43,1.28,0,2.56-.35,3.69-1.04,2.68-1.64,4.4-2.35,4.63-2.44,1.94-.69,3.43-2.16,4.17-4.08.75-1.93.56-4.07-.41-5.88-1.38-2.57-3.02-6.21-4.21-9.68,5.65-2.77,11.04-5.22,16.15-7.4l2.8,10.48c.52,1.94,1.84,3.57,3.63,4.47,1,.51,2.1.76,3.19.76.87,0,1.74-.16,2.56-.48l6.15-2.4c3.3-1.29,5.14-4.82,4.29-8.26l-2.99-12.19c2.1-.73,4.12-1.41,6.06-2.03,3.12-1,6.23-1.96,9.32-2.87,1.24,4.14,2.27,8.8,3.17,13.16.42,2.04,1.71,3.79,3.54,4.78,1.05.57,2.21.86,3.37.86.87,0,1.74-.16,2.57-.48l6.68-2.6c3.18-1.24,5.02-4.58,4.36-7.94-.84-4.29-1.82-8.87-3.05-13.26,7.31-1.74,14.48-3.24,21.45-4.52,1.74,5.38,3.48,11.12,5.2,17.2,5.07,17.97,9.04,35.97,11.85,53.68.75,4.7,1.41,9.38,1.99,14.04.45,3.64.86,7.27,1.21,10.88.44,4.56.81,9.08,1.09,13.58.33,5.23.54,10.43.65,15.58Z"/>
  <path class="cls-18" d="m429.73,144.94c-11.05.94-23.1,2.38-35.88,4.51h0c-2.69-7.97-5.28-14.96-7.58-20.83,13.26.19,25.87,1.3,37.36,2.86,1.96,4.07,4.02,8.58,6.11,13.46Z"/>
  <path class="cls-16" d="m438.49,144.28c-1.69-4.06-3.36-7.83-4.97-11.3,20.16,3.36,35.92,7.86,44.2,10.49-5-.12-10.44-.17-16.24-.09-6.87.09-14.58.35-22.99.91Z"/>
  <path class="cls-19" d="m449.7,208.54c-.47.02-.93.05-1.4.1-21.26,1.67-30.75,15.15-34.41,22.63-.53-3.5-1.1-7-1.72-10.52-2.75-15.61-6.38-31.38-10.83-47.13-1.61-5.71-3.25-11.11-4.87-16.19,13.09-2.14,25.4-3.54,36.6-4.43,2.36,5.92,4.69,12.25,6.88,18.89.96,2.91,1.88,5.83,2.75,8.74,2.65,8.85,4.89,17.69,6.7,26.49.1.47.2.95.29,1.42Z"/>
  <path class="cls-3" d="m477.73,160.65l-22.29,35.35c-1.87-7.83-4.06-15.68-6.57-23.53-.36-1.14-.73-2.27-1.11-3.41-1.96-5.9-3.97-11.47-6-16.66,7.11-.42,13.68-.64,19.6-.71,1.08-.01,2.14-.02,3.2-.03,3.1-.02,6.08,0,8.94.05l4.23,8.95Z"/>
  <path class="cls-15" d="m267.65,183.16c-.5.38,1.41,7.35,1.41,7.35l10.04-6.29s3.17,18.88,7.97,20.64c3.63-2.23,5.86-3.04,5.86-3.04,0,0-7.27-13.49-6.68-21.58,2.81-1.06,12.19-5.28,12.19-5.28l-1.88-4.81-12.08,4.57-1.45-5.78-6.96,3.28.94,6.25s-7.5,3.28-9.38,4.69Z"/>
  <path class="cls-15" d="m303.72,166.39c-.54.32.45,6.37.45,6.37l10.83-4.09,5.72,21.37,6.15-2.4-5.36-21.86,10.94-3.36-1.35-4.98-11.02,2.91c-.42-2.18-1.38-3.93-2.7-5.36l-6.29,2.18c1.28,1.76,2.16,3.6,2.47,5.55,0,0-7.81,2.46-9.83,3.66Z"/>
  <path class="cls-15" d="m336.59,155.41l.78,4.77,11.8-2.81c3.1,5.77,5.17,14.23,7.02,23.24l6.68-2.6c-1.7-8.66-3.63-16.74-6.51-22.51l7.97-1.06-1.35-4.98-9.36.8c-.5-1.65-1.09-2.61-2.42-4.04l-5.69,1.13c1.28,1.76,1.41,3.71,1.73,5.66l-10.66,2.41Z"/>
  <path class="cls-14" d="m407.24,243.79c.45,3.64.86,7.27,1.21,10.88-50.26,47.74-92.31,50.14-116.57,49.5,31.42-1.41,71.52-22.92,87.94-42.21,4.85-5.71,14.4-17.88,25.43-32.2.75,4.7,1.41,9.38,1.99,14.04Z"/>
  <path class="cls-14" d="m442.7,180.63c2.65,8.85,4.89,17.69,6.7,26.49-.37.51-.74,1.01-1.1,1.52-21.26,1.67-30.75,15.15-34.41,22.63-.53-3.5-1.1-7-1.72-10.52,10.27-13.39,21.21-27.79,30.54-40.12Z"/>
  <path class="cls-14" d="m477.73,160.65l-22.29,35.35c-1.87-7.83-4.06-15.68-6.57-23.53,7.3-9.66,13.02-17.26,15.7-20.82,3.1-.02,6.08,0,8.94.05l4.23,8.95Z"/>
  <path class="cls-13" d="m410.19,283.82c-14.55,10.8-31.92,21.18-52.65,30.66-21.8,7.89-46.81,10.04-70.54,9.38-.66-1.71-1.32-3.49-1.99-5.35,18.35-1.62,86.16-10.22,124.53-50.27.33,5.23.54,10.43.65,15.58Z"/>
  <path class="cls-9" d="m643.15,125.95l-152.42,249.5-.49-15.32,107.89-172.63c-.47,0-.93-.02-1.38-.03-30.55-.92-53.58-14.51-70.73-38.02l-45.74,76.07c-.39-.65-.81-1.31-1.25-1.96-1.36-2.03-2.96-4.07-4.84-6.06-2.2-2.33-4.8-4.59-7.85-6.66l86.76-145.39c25.59,27.1,53.25,46.89,83.31,58.14,2.23.83,4.48,1.62,6.74,2.36Z"/>
  <path class="cls-2" d="m587.58,194.18c-9.85,16.53-97.34,165.94-97.34,165.94l-1.5-40.17-.49-13.18-.82-22-.49-13.19-1-26.75,46.08-75.27s27.08,25.09,55.58,24.62Z"/>
  <path class="cls-9" d="m630.75,51.3c-37.06-24.05-73.28-34.03-80.9-22.29-7.62,11.74,16.24,40.76,53.3,64.81,37.06,24.05,73.28,34.03,80.9,22.29,7.62-11.74-16.24-40.76-53.31-64.81Zm41.73,56.25c-5.32,8.19-34.2-1.12-64.52-20.8-30.32-19.67-50.59-42.26-45.27-50.45,5.32-8.19,34.2,1.12,64.52,20.8,30.32,19.67,50.59,42.26,45.27,50.45Z"/>
  <polygon class="cls-19" points="533.9 208.57 487.42 284.77 486.92 271.58 527.68 204.77 533.9 208.57"/>
  <polygon class="cls-19" points="488.24 306.77 555.82 196 562.04 199.8 488.73 319.95 488.24 306.77"/>
  <path class="cls-19" d="m563.94,84.62l-84.91,138.94c-1.36-2.03-2.96-4.07-4.84-6.06l83.54-136.68,6.22,3.8Z"/>
  <path class="cls-19" d="m643.15,125.95l-152.42,249.5-.49-15.32,107.89-172.63c-.47,0-.93-.02-1.38-.03l39.67-63.88c2.23.83,4.48,1.62,6.74,2.36Z"/>
  <path class="cls-19" d="m616.94,143.17l8.11-13.27c1.44-2.36.4-5.46-2.19-6.45-.31-.12-.62-.24-.92-.36-2.3-.89-4.91-.02-6.21,2.08l-8.33,13.42c-1.18,1.91-.4,4.42,1.65,5.32.77.34,1.58.69,2.34,1.02,2.03.88,4.4.14,5.55-1.75Z"/>
  <g>
    <path class="cls-15" d="m119.96,321.56l44.24-7.09c18.44-2.96,32.01-18.87,32.01-37.54v-3.78c0-9.44-8.8-16.41-17.99-14.26l-69.01,16.18-37.66,9.78c-25.26,6.56-44.18,28.37-42.15,63.22l4.53,100.52s-9.85,5.63-9.85,17.35,11.49,15.48,11.49,15.48l6.92,142.83c.71,14.59,13.17,25.81,27.75,24.99l1.83-.1c12.05-.68,21.23-11.05,20.43-23.09-1.99-30.02-5.4-81.46-6.05-91.63-.94-14.54-3.75-61.44-3.75-61.44,0,0,49.71,7.15,55.34-24.5,5.63-31.66-13.6-32.48-21.57-31.07-7.97,1.41-36.58,12.9-36.58,12.9l1.47-64.52c.51-22.12,16.74-40.73,38.59-44.23Z"/>
    <path class="cls-15" d="m236.77,524.35c-3.28-19.7-.94-40.1-4.46-81.61-3.52-41.5-10.32-62.37-33.3-63.78-22.98-1.41-38.69,13.37-48.07,37.99-9.38,24.62-2.58,99.19-2.58,99.19.91,11.96.71,68.47.71,68.47,0,0-3.99,27.9,14.07,27.67,18.06-.23,18.06-15.01,18.06-15.01,0,0-.94-65.19-.7-70.82,5.86-4.92,24.86-6.33,24.86-6.33,6.33,43.38-7.74,72.69,18.99,73.4,26.73.7,15.71-49.48,12.43-69.18Zm-57.69-28.77c1.28-.39-.37-14.17-.46-15.51-.53-7.86-.86-15.63-.72-23.53.23-12.17.11-26.79,4.96-38.17,1.56-3.65,5.83-8.57,10.37-6.87,2.4.9,3.1,3.06,3.64,5.33,2.21,9.37,3.18,19,3.99,28.58,1.25,14.7.81,29.76.91,44.51-7.96,1.97-14.85,3.29-22.7,5.66Z"/>
    <path class="cls-15" d="m337.78,497.62c-3.28-19.7-.94-40.1-4.46-81.61-3.52-41.5-10.32-62.37-33.3-63.78-22.98-1.41-38.69,13.37-48.07,37.99-9.38,24.62-2.58,99.19-2.58,99.19.91,11.96.71,68.47.71,68.47,0,0-3.99,27.9,14.07,27.67,18.06-.23,18.06-15.01,18.06-15.01,0,0-.94-65.19-.7-70.82,5.86-4.92,24.86-6.33,24.86-6.33,6.33,43.38-7.74,72.69,18.99,73.4,26.73.7,15.71-49.48,12.43-69.18Zm-57.69-28.77c1.28-.39-.37-14.17-.46-15.51-.53-7.86-.86-15.63-.72-23.53.23-12.17.11-26.79,4.96-38.17,1.56-3.65,5.83-8.57,10.37-6.87,2.4.9,3.1,3.06,3.64,5.33,2.21,9.37,3.18,19,3.99,28.58,1.25,14.7.81,29.76.91,44.51-7.96,1.97-14.85,3.29-22.7,5.66Z"/>
    <path class="cls-15" d="m635.37,407.33c-3.28-19.7-.94-40.1-4.46-81.61-3.52-41.5-10.32-62.37-33.3-63.78-22.98-1.41-38.69,13.37-48.07,37.99-9.38,24.62-2.58,99.19-2.58,99.19.91,11.96.71,68.47.71,68.47,0,0-3.99,27.9,14.07,27.67,18.06-.23,18.06-15.01,18.06-15.01,0,0-.94-65.19-.7-70.82,5.86-4.92,24.86-6.33,24.86-6.33,6.33,43.38-7.74,72.69,18.99,73.4,26.73.7,15.71-49.48,12.43-69.18Zm-57.69-28.77c1.28-.39-.37-14.17-.46-15.51-.53-7.86-.86-15.63-.72-23.53.23-12.17.11-26.79,4.96-38.17,1.56-3.65,5.83-8.57,10.37-6.87,2.4.9,3.1,3.06,3.64,5.33,2.21,9.37,3.18,19,3.99,28.58,1.25,14.7.81,29.76.91,44.51-7.96,1.97-14.85,3.29-22.7,5.66Z"/>
    <path class="cls-15" d="m430.23,464.55c-.7-23.92-13.13-33.3-25.56-35.41,10.78-8.91,19.46-45.26,19.11-60.27-.35-15.01-10.2-29.78-36.46-29.31s-45.26,14.77-43.38,24.62c1.88,9.85,2.81,15.24,23.45,5.63,23.68-7.5,31.19-.23,29.31,10.32,0,0-4.92,40.8-23.69,54.17.44-10.34.47-19.72.37-26.78-.1-7.21-5.97-13-13.18-13s-13.18,5.92-13.18,13.18c0,.09,0,.18,0,.28l2.53,122.24v9.87c0,7.08,6.55,12.37,13.47,10.85,9.81-2.16,23.23-5.86,34.13-11.58,19.7-10.32,33.76-50.88,33.06-74.8Zm-24.28,12.56c-1.26,7.23-3.36,14.35-6.13,21.14-5.73,14.04-9.99,17.3-13.99,19.53-1.93,1.07-6.12,1.49-8.75,2.09l-1.39-44.54c.6,0,16.81-21.77,18.58-23.45,1.15-1.08,4.78.72,5.94,1.27,2.29,1.08,4.23,2.96,5.43,5.19,2.84,5.25,1.29,13.14.31,18.77Z"/>
    <path class="cls-15" d="m438.44,468.84l-8.18-224.08s-.26-14.63,22.25-15.02c13.83,0,13.83,18.13,13.83,18.13l8.91,234.96,52.76-14.54s9.61.11,9.38,17.41c-.23,17.3-20.64,18.94-20.64,18.94l-63.38,17.35c-7.73,2.12-15.34-3.74-15.28-11.76l.34-41.41Z"/>
    <path class="cls-15" d="m740.23,321.51s15.48-11.96,15.48-47.84c-1.76-43.26-37.99-47.13-37.99-47.13l-54.86,3.62c-10.95.72-19.31,10.07-18.82,21.03l4.74,105.96,4.41,95.02c.28,6.02,5.69,10.47,11.65,9.6,16.3-2.4,46.49-7.73,62.74-16.1,19.02-9.8,36.93-21.1,40.45-67.12,3.52-46.02-27.79-57.04-27.79-57.04Zm-58.74-3.16l-1.17-59.09c21.1.49,40.21-3.75,41.97,22.86,2.11,40.1-40.8,36.23-40.8,36.23Zm5.01,104.34l-2.08-74.75c21.87-4.02,46.23-8.71,49.74,28.05,2.46,51.69-47.67,46.71-47.67,46.71Z"/>
  </g>
  <polygon class="cls-15" points="492.25 402.41 492.6 424.22 525.14 373.57 525.14 352.14 492.25 402.41"/>
  <polygon class="cls-15" points="493.54 429.61 493.54 457.28 527.54 447.2 527.54 417.19 493.54 429.61"/>
  <path class="cls-15" d="m198.55,323.97s34.47,15.84,66.83,17.24c-5.28,4.92-13.72,13.01-13.72,13.01,0,0-56.28-12.31-65.78-21.1,7.03-2.81,12.66-9.15,12.66-9.15Z"/>
  <g>
    <path class="cls-7" d="m485.05,112.41s.07.03.1.05c2.54,1.11,5.52-.03,6.77-2.51l19.62-38.74c.52-1.02-.88-1.91-1.59-1.01l-26.79,34.14c-2.1,2.67-1.21,6.67,1.88,8.07Z"/>
    <path class="cls-7" d="m271.31,120.69s.05-.06.07-.09c1.75-2.16,1.43-5.33-.63-7.2l-32.17-29.17c-.85-.77-2.08.35-1.4,1.27l25.84,34.87c2.02,2.73,6.11,2.94,8.28.32Z"/>
    <path class="cls-7" d="m166.58,218.94s.02-.08.03-.12c.78-2.84-.87-5.78-3.65-6.72l-55.04-21.79c-1.15-.39-1.87,1.22-.82,1.82l51.31,30c3.12,1.8,7.18.27,8.18-3.19Z"/>
    <path class="cls-7" d="m355.83,95.35s.08-.02.13-.03c3.05-.69,4.98-3.72,4.46-6.8l-8.11-48.23c-.21-1.27-2.08-1.14-2.12.15l-1.45,48.86c-.11,3.82,3.36,6.86,7.1,6.06Z"/>
    <path class="cls-7" d="m431.88,97.38c.06,0,.12.01.18.02,4.27.4,8.09-2.71,8.73-6.96l10.08-66.36c.27-1.75-2.22-2.38-2.82-.72l-22.82,63.08c-1.79,4.94,1.44,10.38,6.66,10.94Z"/>
    <path class="cls-7" d="m210.8,162.66s.05-.07.07-.1c1.69-2.41,1.14-5.73-1.17-7.56l-50.86-41.56c-.95-.75-2.17.51-1.39,1.44l44.57,48.02c2.33,2.74,6.66,2.68,8.78-.24Z"/>
  </g>
</svg>